#!OML:ASF F:\VICON\USERDATA\INSTALL\rory3\rory3.ASF
:FULLY-SPECIFIED
:DEGREES
248
root 0.759584 17.8794 13.6321 -4.73674 -3.55439 -6.23613
lowerback 12.9937 0.870492 5.65016
upperback -0.758392 2.30462 3.27414
thorax -8.04699 0.951664 -0.147248
lowerneck -11.0053 -1.2873 -2.49374
upperneck 28.9441 -1.23301 -0.135129
head 11.1941 -0.845342 0.225194
rclavicle 2.82647e-015 3.57812e-015
rhumerus -29.2893 -5.25881 -78.4748
rradius 34.7703
rwrist -0.815905
rhand -13.7735 9.11932
rfingers 7.12502
rthumb 12.3475 -20.4961
lclavicle 2.82647e-015 3.57812e-015
lhumerus -42.1066 4.14676 87.5934
lradius 39.4117
lwrist 5.5548
lhand -13.0257 50.1531
lfingers 7.12502
lthumb 13.0684 79.7237
rfemur 17.8902 6.40902 33.9472
rtibia 22.0463
rfoot -11.1947 -5.83028
rtoes -3.71803
lfemur -23.2523 -7.17543 -13.728
ltibia 24.0417
lfoot -7.89296 8.53596
ltoes -18.7502
249
root 0.783294 17.8924 13.8405 -4.72287 -3.70124 -5.56265
lowerback 12.6896 0.982043 5.0744
upperback -0.882627 2.3324 3.08328
thorax -8.0183 0.985094 -0.0282188
lowerneck -10.7246 -1.24889 -2.42811
upperneck 29.1338 -1.18207 -0.199886
head 11.2086 -0.824257 0.197994
rclavicle -1.30577e-014 -3.29983e-014
rhumerus -29.6283 -5.61168 -78.3259
rradius 34.1763
rwrist -0.579877
rhand -13.7835 9.43468
rfingers 7.12502
rthumb 12.3378 -20.1813
lclavicle -1.30577e-014 -3.29983e-014
lhumerus -42.3111 4.27968 87.4732
lradius 38.9662
lwrist 5.42403
lhand -12.9071 50.3395
lfingers 7.12502
lthumb 13.1828 79.9027
rfemur 17.5452 6.4908 33.0555
rtibia 23.7949
rfoot -10.3687 -5.53071
rtoes -3.44543
lfemur -22.7595 -7.19086 -14.6226
ltibia 24.0617
lfoot -6.54744 8.19677
ltoes -16.6959
250
root 0.798827 17.9004 14.0225 -4.9344 -3.77004 -4.97301
lowerback 12.8294 1.06763 4.4785
upperback -0.943879 2.35662 2.93324
thorax -8.17841 1.01533 0.13792
lowerneck -10.3751 -1.21609 -2.48436
upperneck 29.2762 -1.16996 -0.0711728
head 11.1938 -0.810296 0.258128
rclavicle 2.16924e-014 -1.19271e-014
rhumerus -29.8107 -6.18275 -78.1574
rradius 33.4038
rwrist -0.166355
rhand -13.791 9.51694
rfingers 7.12502
rthumb 12.3306 -20.0995
lclavicle 2.16924e-014 -1.19271e-014
lhumerus -42.5009 4.48906 87.3286
lradius 38.6936
lwrist 5.29904
lhand -12.7307 50.5171
lfingers 7.12502
lthumb 13.3527 80.0693
rfemur 17.0394 6.63728 32.409
rtibia 25.9507
rfoot -9.33108 -5.46474
rtoes -2.20986
lfemur -22.167 -6.96092 -15.4415
ltibia 24.1453
lfoot -4.97322 7.63694
ltoes -14.4778
251
root 0.815728 17.9095 14.208 -5.19171 -3.66884 -4.533
lowerback 12.9964 1.08 4.10477
upperback -0.949506 2.3152 2.79663
thorax -8.28831 1.00634 0.206392
lowerneck -10.3099 -1.25023 -2.58524
upperneck 29.4972 -1.23433 0.0521839
head 11.2685 -0.837119 0.312558
rclavicle -1.2014e-014 -1.11319e-014
rhumerus -30.1591 -6.67415 -78.0377
rradius 33.047
rwrist 0.0955456
rhand -13.7744 9.22935
rfingers 7.12502
rthumb 12.3466 -20.3861
lclavicle -1.2014e-014 -1.11319e-014
lhumerus -42.6856 4.56262 87.2676
lradius 38.5318
lwrist 5.39237
lhand -12.902 50.9729
lfingers 7.12502
lthumb 13.1877 80.5358
rfemur 16.4513 6.40492 31.8041
rtibia 28.2336
rfoot -8.08763 -5.2692
rtoes -2.57029
lfemur -21.4962 -6.61854 -16.1883
ltibia 24.3337
lfoot -3.34501 7.13059
ltoes -13.4763
252
root 0.833908 17.9224 14.3938 -5.35934 -3.37221 -4.13508
lowerback 13.1808 1.03239 3.83655
upperback -1.0076 2.21187 2.65119
thorax -8.46212 0.961296 0.218351
lowerneck -10.4648 -1.28244 -2.60812
upperneck 29.7739 -1.26856 0.0478981
head 11.4081 -0.8571 0.309162
rclavicle -8.22472e-015 9.14409e-015
rhumerus -30.6527 -7.20362 -77.872
rradius 32.8648
rwrist 0.433635
rhand -13.9708 9.17419
rfingers 7.12502
rthumb 12.1572 -20.4526
lclavicle -8.22472e-015 9.14409e-015
lhumerus -42.835 4.68424 87.1544
lradius 38.3032
lwrist 5.24884
lhand -12.9956 50.8177
lfingers 7.12502
lthumb 13.0975 80.3865
rfemur 15.6889 5.82097 31.0818
rtibia 30.5755
rfoot -6.61199 -4.8232
rtoes -2.55007
lfemur -21.0022 -6.25083 -16.9438
ltibia 24.7235
lfoot -2.45229 6.57303
ltoes -11.3535
253
root 0.851457 17.9304 14.581 -5.58791 -3.06617 -3.71719
lowerback 13.2636 0.984388 3.49278
upperback -0.99708 2.0881 2.54073
thorax -8.50729 0.913808 0.31691
lowerneck -10.5672 -1.33812 -2.68965
upperneck 30.0363 -1.31049 -0.00400654
head 11.533 -0.892992 0.297556
rclavicle 8.05078e-015 -1.98785e-014
rhumerus -31.1448 -7.80842 -77.6176
rradius 32.7108
rwrist 0.819237
rhand -14.1125 9.47162
rfingers 7.12502
rthumb 12.0206 -20.1632
lclavicle 8.05078e-015 -1.98785e-014
lhumerus -42.8431 4.91322 87.0047
lradius 37.869
lwrist 4.86687
lhand -12.9655 50.618
lfingers 7.12502
lthumb 13.1265 80.1848
rfemur 14.9537 5.05295 30.2354
rtibia 32.9252
rfoot -4.66496 -4.36281
rtoes -1.91371
lfemur -20.4654 -5.80431 -17.7456
ltibia 25.1732
lfoot -2.21121 5.80664
ltoes -9.1492
254
root 0.869519 17.9381 14.7758 -6.03614 -3.02458 -3.54197
lowerback 13.2387 0.973557 3.36688
upperback -0.72804 2.0382 2.524
thorax -8.20538 0.900967 0.380895
lowerneck -10.7463 -1.34522 -2.70883
upperneck 30.1593 -1.28367 -0.089884
head 11.6175 -0.894145 0.271088
rclavicle 4.84538e-016 1.59028e-015
rhumerus -31.3294 -8.32923 -77.4305
rradius 32.5653
rwrist 0.926676
rhand -13.8837 9.09396
rfingers 7.12502
rthumb 12.2412 -20.5278
lclavicle 4.84538e-016 1.59028e-015
lhumerus -42.591 5.21827 86.8787
lradius 37.3984
lwrist 4.48456
lhand -12.8167 50.7614
lfingers 7.12502
lthumb 13.2699 80.319
rfemur 14.288 4.59003 29.7255
rtibia 35.4162
rfoot -2.18969 -3.97048
rtoes 1.04043
lfemur -19.7917 -5.15148 -18.2656
ltibia 26.0104
lfoot -2.35632 4.79445
ltoes -8.00237
255
root 0.90086 17.9499 14.9694 -6.13621 -2.62936 -2.83893
lowerback 12.7715 0.896373 2.93701
upperback -0.513937 1.81425 2.25214
thorax -7.71398 0.812375 0.385502
lowerneck -10.9246 -1.30016 -2.5346
upperneck 30.1272 -1.21733 -0.207773
head 11.6378 -0.858516 0.204817
rclavicle -2.41026e-015 -2.82274e-014
rhumerus -31.314 -9.16432 -77.2858
rradius 32.1979
rwrist 1.2369
rhand -13.6817 8.84102
rfingers 7.12502
rthumb 12.436 -20.769
lclavicle -2.41026e-015 -2.82274e-014
lhumerus -42.2878 5.53667 86.6376
lradius 37.0443
lwrist 4.20902
lhand -12.7758 50.7798
lfingers 7.12502
lthumb 13.3093 80.3348
rfemur 13.1474 3.81141 28.3359
rtibia 37.8858
rfoot 0.862744 -3.01682
rtoes 4.59338
lfemur -19.453 -4.64119 -19.4706
ltibia 26.8111
lfoot -2.36537 3.4885
ltoes -6.82395
256
root 0.901428 17.9303 15.0927 -6.40561 -2.71388 -3.65794
lowerback 14.0031 0.808903 3.50419
upperback -0.810113 1.89011 2.55784
thorax -8.73052 0.815277 0.357744
lowerneck -10.6721 -1.22302 -2.60953
upperneck 30.2757 -1.10549 -0.176452
head 11.6439 -0.813938 0.245194
rclavicle 1.01629e-014 9.93923e-015
rhumerus -31.8595 -9.81664 -76.9541
rradius 31.6656
rwrist 1.69168
rhand -13.6934 9.36166
rfingers 7.12502
rthumb 12.4247 -20.2491
lclavicle 1.01629e-014 9.93923e-015
lhumerus -42.7331 5.81221 86.4182
lradius 36.8589
lwrist 4.21995
lhand -12.8209 50.4451
lfingers 7.12502
lthumb 13.2658 80.0029
rfemur 11.7475 3.7466 29.244
rtibia 40.3848
rfoot 4.95841 -3.51464
rtoes 8.85861
lfemur -19.2675 -3.91122 -18.6639
ltibia 27.5203
lfoot -1.97853 2.24511
ltoes -4.96367
257
root 0.919139 17.9381 15.274 -6.82397 -2.74804 -3.38131
lowerback 14.2809 0.827821 3.29746
upperback -0.68228 1.88265 2.48136
thorax -8.75311 0.819405 0.389672
lowerneck -10.6274 -1.20646 -2.6166
upperneck 30.2248 -1.08155 -0.17601
head 11.6144 -0.803501 0.250099
rclavicle 1.13307e-014 7.15625e-015
rhumerus -32.0005 -10.6571 -76.6775
rradius 30.9321
rwrist 2.15281
rhand -13.8222 10.0784
rfingers 7.12502
rthumb 12.3006 -19.5398
lclavicle 1.13307e-014 7.15625e-015
lhumerus -42.7591 5.92754 86.3019
lradius 36.6849
lwrist 4.2018
lhand -12.5802 50.6432
lfingers 7.12502
lthumb 13.4979 80.1858
rfemur 10.7231 3.44904 28.5905
rtibia 42.8118
rfoot 8.86259 -4.63801
rtoes 15.8501
lfemur -18.4532 -3.54766 -19.2139
ltibia 28.0073
lfoot -2.08432 1.71742
ltoes -4.07001
258
root 0.956578 17.9649 15.453 -6.90447 -2.47693 -2.62853
lowerback 14.1054 0.77379 2.88393
upperback -0.577354 1.70357 2.20465
thorax -8.54284 0.748255 0.366927
lowerneck -10.6649 -1.20162 -2.63338
upperneck 30.0628 -1.07295 -0.166647
head 11.5585 -0.799238 0.257741
rclavicle 1.0138e-014 1.74931e-014
rhumerus -32.1957 -11.1998 -76.5065
rradius 30.5466
rwrist 2.36679
rhand -13.8129 10.3342
rfingers 7.12502
rthumb 12.3095 -19.2835
lclavicle 1.0138e-014 1.74931e-014
lhumerus -42.727 5.9816 86.232
lradius 36.7692
lwrist 4.23496
lhand -12.2945 51.2276
lfingers 7.12502
lthumb 13.7731 80.7517
rfemur 9.32123 2.85318 27.0839
rtibia 45.2479
rfoot 11.9745 -4.63287
rtoes 17.6792
lfemur -17.898 -3.61644 -20.4015
ltibia 28.4059
lfoot -2.37071 1.57244
ltoes -3.20305
259
root 0.976349 17.9752 15.6248 -7.27082 -2.56849 -2.33169
lowerback 14.3138 0.813599 2.61525
upperback -0.41568 1.71062 2.16383
thorax -8.49163 0.763639 0.470615
lowerneck -10.5466 -1.20942 -2.67557
upperneck 29.833 -1.07384 -0.186089
head 11.4449 -0.80516 0.258981
rclavicle -9.44227e-015 -1.51076e-014
rhumerus -32.5814 -11.2074 -76.4724
rradius 30.594
rwrist 1.9411
rhand -13.8467 10.6677
rfingers 7.12502
rthumb 12.2769 -18.9519
lclavicle -9.44227e-015 -1.51076e-014
lhumerus -42.8374 5.98791 86.2409
lradius 37.0017
lwrist 4.3563
lhand -12.1221 51.5941
lfingers 7.12502
lthumb 13.9393 81.1068
rfemur 8.17682 2.7246 26.4159
rtibia 47.6916
rfoot 14.3384 -3.03077
rtoes 11.8487
lfemur -16.9319 -3.55716 -20.9345
ltibia 28.4961
lfoot -2.51504 1.54504
ltoes -1.43314
